# xmcd
# 
# Track frame offsets:
#     150
#     15733
#     30073
#     43467
#     55058
# 
# Disc length: 919
# 
# Revision: 0
# Processed by: cddbd v1.5.2PL0 Copyright (c) Steve Scherf et al.
# Submitted via: fre:ac v1.1beta1pre4
# 
DISCID=34039505
DTITLE=Daniel Amedee - Life
DYEAR=2016
DGENRE=Folk
TTITLE0=Life (Hu-ah-oh)
TTITLE1=Be All
TTITLE2=The Only God is You
TTITLE3=Rhythm of Being
TTITLE4=Reaching Outside (Hu-a-ah)
EXTD=
EXTT0=
EXTT1=
EXTT2=
EXTT3=
EXTT4=
PLAYORDER=
